<svg id="_002-analysis" data-name="002-analysis" xmlns="http://www.w3.org/2000/svg" viewBox="0 0 84.282 84.253">
  <defs>
    <style>
      .cls-1 {
        fill: #f0454c;
      }
    </style>
  </defs>
  <g id="Groupe_36" data-name="Groupe 36" transform="translate(5.649 5.621)">
    <g id="Groupe_35" data-name="Groupe 35">
      <path id="Tracé_19" data-name="Tracé 19" class="cls-1" d="M61.669,32.106A29.487,29.487,0,1,0,91.157,61.593,29.487,29.487,0,0,0,61.669,32.106Zm0,2.808A26.651,26.651,0,0,1,83.456,46.246l-3.51,3.51a5.541,5.541,0,0,0-2.831-.8A5.617,5.617,0,0,0,71.5,54.573a5.542,5.542,0,0,0,.8,2.835L63.1,66.6a5.446,5.446,0,0,0-5.67,0l-6.386-6.386a5.542,5.542,0,0,0,.8-2.835,5.605,5.605,0,0,0-11.034-1.4H35.6A26.717,26.717,0,0,1,61.669,34.914ZM79.923,54.573a2.808,2.808,0,1,1-2.808-2.808A2.808,2.808,0,0,1,79.923,54.573Zm-16.85,16.85a2.808,2.808,0,1,1-2.808-2.808A2.808,2.808,0,0,1,63.074,71.422ZM49.032,57.381a2.808,2.808,0,1,1-2.808-2.808A2.808,2.808,0,0,1,49.032,57.381Zm25.6,27.54A26.674,26.674,0,0,1,35.141,58.785h5.666A5.617,5.617,0,0,0,46.224,63a5.542,5.542,0,0,0,2.835-.8l6.386,6.386a5.542,5.542,0,0,0-.8,2.835,5.617,5.617,0,0,0,11.233,0,5.542,5.542,0,0,0-.8-2.835l9.194-9.194a5.542,5.542,0,0,0,2.835.8,5.617,5.617,0,0,0,5.617-5.617,5.542,5.542,0,0,0-.8-2.835L85,48.678A26.655,26.655,0,0,1,74.632,84.921Z" transform="translate(-32.182 -32.106)"/>
    </g>
  </g>
  <g id="Groupe_38" data-name="Groupe 38" transform="translate(0 0)">
    <g id="Groupe_37" data-name="Groupe 37">
      <path id="Tracé_20" data-name="Tracé 20" class="cls-1" d="M70.24,14.126a5.617,5.617,0,0,0,5.417-4.212h8.624V7.106H75.657a5.6,5.6,0,0,0-11.034,1.4,5.542,5.542,0,0,0,.8,2.835l-2.467,2.467a35.1,35.1,0,1,0-8.765,50.839l4.238,4.238,1.985,1.985,11.3,11.3a7.361,7.361,0,0,0,10.41-10.41l-11.3-11.3-1.985-1.985L64.6,54.24a34.988,34.988,0,0,0,0-38.1l2.808-2.808A5.543,5.543,0,0,0,70.24,14.126Zm0-8.425A2.808,2.808,0,1,1,67.432,8.51,2.808,2.808,0,0,1,70.24,5.7Zm9.9,68.051a4.554,4.554,0,0,1-6.366,6.513l-.073-.073-11.3-11.3,6.439-6.439ZM66.851,60.464,60.411,66.9l-3.887-3.887c.2-.152.383-.319.579-.475s.421-.343.63-.518c.308-.258.611-.52.908-.788.153-.14.3-.281.449-.421q.864-.809,1.672-1.672c.14-.15.281-.3.421-.449.268-.3.529-.6.788-.908q.264-.312.518-.63c.154-.194.322-.379.473-.577Zm-5.445-6.522c-.442.618-.9,1.223-1.38,1.806-.14.17-.291.334-.435.5q-.645.75-1.331,1.455-.3.309-.608.608-.7.687-1.455,1.331c-.167.14-.331.293-.5.435-.583.482-1.188.938-1.806,1.38a32.346,32.346,0,1,1,7.516-7.516Z" transform="translate(0 -0.08)"/>
    </g>
  </g>
</svg>
