<svg id="_001-development" data-name="001-development" xmlns="http://www.w3.org/2000/svg" viewBox="0 0 103.354 81.553">
  <defs>
    <style>
      .cls-1 {
        fill: #f0454c;
      }
    </style>
  </defs>
  <g id="Groupe_26" data-name="Groupe 26" transform="translate(4.037 51.013)">
    <g id="Groupe_25" data-name="Groupe 25">
      <path id="Tracé_14" data-name="Tracé 14" class="cls-1" d="M23.447,307.3a2.017,2.017,0,1,0,.592,1.427A2.033,2.033,0,0,0,23.447,307.3Z" transform="translate(-20.001 -306.71)"/>
    </g>
  </g>
  <g id="Groupe_28" data-name="Groupe 28" transform="translate(0 0)">
    <g id="Groupe_27" data-name="Groupe 27">
      <path id="Tracé_15" data-name="Tracé 15" class="cls-1" d="M11.521,58.628,7.484,54.591a2.019,2.019,0,0,0-2.855,0L.591,58.628a2.019,2.019,0,0,0,2.855,2.855l.591-.591v38a2.019,2.019,0,1,0,4.037,0v-38l.591.591a2.019,2.019,0,0,0,2.855-2.855Z" transform="translate(0 -54)"/>
    </g>
  </g>
  <g id="Groupe_30" data-name="Groupe 30" transform="translate(4.037 39.065)">
    <g id="Groupe_29" data-name="Groupe 29">
      <path id="Tracé_16" data-name="Tracé 16" class="cls-1" d="M118.726,282.529l-4.037-4.037a2.019,2.019,0,0,0-2.855,2.855l.591.591h-7.244V253.61a2.019,2.019,0,0,0-4.037,0v28.328H79.269V269.018a2.019,2.019,0,0,0-4.037,0v12.919H58.451V249.544a2.019,2.019,0,0,0-4.037,0v32.394H38.206V269.321a2.019,2.019,0,0,0-4.037,0v12.616H24.038V270.319a2.019,2.019,0,0,0-4.037,0v13.637a2.019,2.019,0,0,0,2.019,2.019h90.406l-.591.591a2.019,2.019,0,1,0,2.855,2.855l4.037-4.037A2.019,2.019,0,0,0,118.726,282.529Z" transform="translate(-20.001 -247.525)"/>
    </g>
  </g>
  <g id="Groupe_32" data-name="Groupe 32" transform="translate(12.935 15.64)">
    <g id="Groupe_31" data-name="Groupe 31">
      <path id="Tracé_17" data-name="Tracé 17" class="cls-1" d="M138.341,131.476a7.285,7.285,0,0,0-6.54,10.5l-15.807,15.807a7.27,7.27,0,0,0-7.06-.041L98.242,147.053a7.288,7.288,0,1,0-13.06.414l-10.3,10.3a7.3,7.3,0,1,0,2.858,2.852L88,150.361a7.264,7.264,0,0,0,7.608-.235l10.461,10.461a7.288,7.288,0,1,0,12.764.07l15.689-15.689a7.288,7.288,0,1,0,3.821-13.492ZM71.366,167.4a3.252,3.252,0,1,1,2.261-5.584c.01.01.019.022.029.032s.025.022.037.034a3.248,3.248,0,0,1-2.327,5.518Zm20.245-20.115a3.252,3.252,0,1,1,3.251-3.251A3.255,3.255,0,0,1,91.611,147.286Zm20.818,20.1a3.252,3.252,0,1,1,3.251-3.252A3.255,3.255,0,0,1,112.429,167.39Zm25.912-25.374a3.252,3.252,0,1,1,3.251-3.252A3.255,3.255,0,0,1,138.341,142.016Z" transform="translate(-64.077 -131.476)"/>
    </g>
  </g>
  <g id="Groupe_34" data-name="Groupe 34" transform="translate(85.18 34.72)">
    <g id="Groupe_33" data-name="Groupe 33">
      <path id="Tracé_18" data-name="Tracé 18" class="cls-1" d="M425.417,226.591a2.017,2.017,0,1,0,.591,1.427A2.034,2.034,0,0,0,425.417,226.591Z" transform="translate(-421.971 -226)"/>
    </g>
  </g>
</svg>
