<svg id="_003-sketch" data-name="003-sketch" xmlns="http://www.w3.org/2000/svg" viewBox="0 0 96.723 96.412">
  <defs>
    <style>
      .cls-1 {
        fill: #eb444b;
      }
    </style>
  </defs>
  <g id="Groupe_40" data-name="Groupe 40" transform="translate(68.106 67.995)">
    <g id="Groupe_39" data-name="Groupe 39">
      <path id="Tracé_21" data-name="Tracé 21" class="cls-1" d="M377.995,360.857a1.42,1.42,0,0,0-1.547.308l-15.515,15.515a1.42,1.42,0,0,0,1,2.424h15.515a1.42,1.42,0,0,0,1.42-1.42V362.169A1.42,1.42,0,0,0,377.995,360.857Zm-12.631,15.406L376.031,365.6v10.668Z" transform="translate(-360.517 -360.749)"/>
    </g>
  </g>
  <g id="Groupe_42" data-name="Groupe 42" transform="translate(0 0)">
    <g id="Groupe_41" data-name="Groupe 41">
      <path id="Tracé_22" data-name="Tracé 22" class="cls-1" d="M95.846,46.168a1.42,1.42,0,0,0-1.547.308l-4.252,4.252V21.818a1.42,1.42,0,0,0-1.42-1.42H77.72l3.96-3.96,0,0L85.5,12.621a4.329,4.329,0,0,0,0-6.122L81.084,2.088a4.329,4.329,0,0,0-6.122,0L71.145,5.9l-4.612,4.612L56.652,20.4H12.585V6.353a1.42,1.42,0,0,0-1.42-1.42A11.179,11.179,0,0,0,0,16.1V76.4a1.423,1.423,0,0,0,.034.305,10.753,10.753,0,0,0,10.721,9.936H54.135l-8.17,8.17a1.42,1.42,0,0,0,1,2.424H95.3a1.42,1.42,0,0,0,1.42-1.42V47.479A1.42,1.42,0,0,0,95.846,46.168ZM76.971,4.1a1.491,1.491,0,0,1,2.106,0l4.412,4.412a1.491,1.491,0,0,1,0,2.106l-2.813,2.813L74.157,6.909ZM72.149,8.917l6.518,6.518-2.6,2.6-6.518-6.518ZM93.884,63.431H91.264a1.42,1.42,0,1,0,0,2.839h2.619v4.278H91.264a1.42,1.42,0,0,0,0,2.839h2.619v4.278H91.264a1.42,1.42,0,0,0,0,2.839h2.619v4.278H91.264a1.42,1.42,0,0,0,0,2.839h2.619v6.771H50.4l14.34-14.34a1.42,1.42,0,0,0-2.008-2.008L56.975,83.8H10.754A7.87,7.87,0,0,1,2.846,76.14q.012-.4.063-.8v0q.024-.188.057-.375l.008-.043q.03-.166.066-.331c.007-.031.014-.061.021-.092q.032-.139.07-.277c.014-.05.028-.1.042-.149.021-.072.042-.144.065-.215s.047-.142.072-.212c.017-.049.034-.1.053-.148.035-.093.071-.185.109-.276l.032-.079c.049-.113.1-.225.152-.336l.007-.014a8.357,8.357,0,0,1,5.809-4.543l.022,0c.118-.024.236-.045.356-.064l.06-.01c.108-.016.217-.029.326-.042l.092-.011c.105-.011.211-.018.318-.024l.1-.007q.209-.01.42-.011a1.42,1.42,0,0,0,1.42-1.42V56.358a1.42,1.42,0,1,0-2.839,0v8.963a11.088,11.088,0,0,0-6.377,3.086c-.185.18-.359.368-.53.558V16.1A8.341,8.341,0,0,1,9.746,7.894V50.679h0a1.42,1.42,0,1,0,2.839,0h0V23.237H53.813l-7.848,7.848a1.42,1.42,0,0,0,2.008,2.008L58.244,22.822h0l9.292-9.292,6.518,6.518-.765.765,0,0L44.663,49.44l-6.518-6.518,5.642-5.642a1.42,1.42,0,0,0-2.008-2.008l-6.646,6.646a1.427,1.427,0,0,0-.1.112c-.01.013-.02.027-.029.04s-.04.053-.058.081-.02.033-.03.05-.031.053-.045.081-.017.036-.026.054-.024.056-.035.084c0,.01-.009.019-.012.029l-2.766,7.835-1.886,5.342a1.436,1.436,0,0,0-.056.216H25.369a1.42,1.42,0,0,0,0,2.839H64.684a1.42,1.42,0,1,0,0-2.839H36.477l8.658-3.056.021-.009c.034-.012.067-.026.1-.041l.039-.018c.034-.017.067-.036.1-.056l.032-.019c.034-.022.067-.046.1-.071l.025-.018a1.425,1.425,0,0,0,.115-.1L74.88,23.238H87.208V53.567L66.9,73.874a1.42,1.42,0,0,0,0,2.008c.035.035.071.067.108.1a1.419,1.419,0,0,0,1.9-.1h0L93.884,50.906ZM42.066,50.858,38,52.294,35.29,49.584l1.436-4.067Z" transform="translate(0 -0.82)"/>
    </g>
  </g>
</svg>
