<svg xmlns="http://www.w3.org/2000/svg" xmlns:xlink="http://www.w3.org/1999/xlink" viewBox="0 0 455 407.356">
  <defs>
    <style>
      .cls-1 {
        opacity: 0.581;
      }

      .cls-2 {
        opacity: 0.497;
      }

      .cls-3 {
        fill: #c6c6c6;
      }

      .cls-4 {
        fill: url(#linear-gradient);
      }
    </style>
    <linearGradient id="linear-gradient" x2="1" y2="1" gradientUnits="objectBoundingBox">
      <stop offset="0" stop-color="#fdfdfd"/>
      <stop offset="1" stop-color="#fdfdfd" stop-opacity="0.302"/>
    </linearGradient>
  </defs>
  <g id="Groupe_4" data-name="Groupe 4" class="cls-1" transform="translate(-806 -308.644)">
    <g id="Groupe_3" data-name="Groupe 3" class="cls-2" transform="translate(-392 -1218.356)">
      <circle id="Ellipse_3" data-name="Ellipse 3" class="cls-3" cx="13.102" cy="13.102" r="13.102" transform="translate(1198 1527)"/>
      <circle id="Ellipse_4" data-name="Ellipse 4" class="cls-3" cx="13.102" cy="13.102" r="13.102" transform="translate(1245.644 1527)"/>
      <circle id="Ellipse_5" data-name="Ellipse 5" class="cls-3" cx="13.102" cy="13.102" r="13.102" transform="translate(1293.288 1527)"/>
      <circle id="Ellipse_6" data-name="Ellipse 6" class="cls-3" cx="13.102" cy="13.102" r="13.102" transform="translate(1340.932 1527)"/>
      <circle id="Ellipse_7" data-name="Ellipse 7" class="cls-3" cx="13.102" cy="13.102" r="13.102" transform="translate(1388.576 1527)"/>
      <circle id="Ellipse_8" data-name="Ellipse 8" class="cls-3" cx="13.102" cy="13.102" r="13.102" transform="translate(1436.22 1527)"/>
      <circle id="Ellipse_9" data-name="Ellipse 9" class="cls-3" cx="13.102" cy="13.102" r="13.102" transform="translate(1483.864 1527)"/>
      <circle id="Ellipse_10" data-name="Ellipse 10" class="cls-3" cx="13.102" cy="13.102" r="13.102" transform="translate(1531.508 1527)"/>
      <circle id="Ellipse_11" data-name="Ellipse 11" class="cls-3" cx="13.102" cy="13.102" r="13.102" transform="translate(1579.152 1527)"/>
      <circle id="Ellipse_12" data-name="Ellipse 12" class="cls-3" cx="13.102" cy="13.102" r="13.102" transform="translate(1626.796 1527)"/>
      <circle id="Ellipse_13" data-name="Ellipse 13" class="cls-3" cx="13.102" cy="13.102" r="13.102" transform="translate(1198 1574.644)"/>
      <circle id="Ellipse_14" data-name="Ellipse 14" class="cls-3" cx="13.102" cy="13.102" r="13.102" transform="translate(1245.644 1574.644)"/>
      <circle id="Ellipse_15" data-name="Ellipse 15" class="cls-3" cx="13.102" cy="13.102" r="13.102" transform="translate(1293.288 1574.644)"/>
      <circle id="Ellipse_16" data-name="Ellipse 16" class="cls-3" cx="13.102" cy="13.102" r="13.102" transform="translate(1340.932 1574.644)"/>
      <circle id="Ellipse_17" data-name="Ellipse 17" class="cls-3" cx="13.102" cy="13.102" r="13.102" transform="translate(1388.576 1574.644)"/>
      <circle id="Ellipse_18" data-name="Ellipse 18" class="cls-3" cx="13.102" cy="13.102" r="13.102" transform="translate(1436.22 1574.644)"/>
      <circle id="Ellipse_19" data-name="Ellipse 19" class="cls-3" cx="13.102" cy="13.102" r="13.102" transform="translate(1483.864 1574.644)"/>
      <circle id="Ellipse_20" data-name="Ellipse 20" class="cls-3" cx="13.102" cy="13.102" r="13.102" transform="translate(1531.508 1574.644)"/>
      <circle id="Ellipse_21" data-name="Ellipse 21" class="cls-3" cx="13.102" cy="13.102" r="13.102" transform="translate(1579.152 1574.644)"/>
      <circle id="Ellipse_22" data-name="Ellipse 22" class="cls-3" cx="13.102" cy="13.102" r="13.102" transform="translate(1626.796 1574.644)"/>
      <circle id="Ellipse_23" data-name="Ellipse 23" class="cls-3" cx="13.102" cy="13.102" r="13.102" transform="translate(1198 1622.288)"/>
      <circle id="Ellipse_24" data-name="Ellipse 24" class="cls-3" cx="13.102" cy="13.102" r="13.102" transform="translate(1245.644 1622.288)"/>
      <circle id="Ellipse_25" data-name="Ellipse 25" class="cls-3" cx="13.102" cy="13.102" r="13.102" transform="translate(1293.288 1622.288)"/>
      <circle id="Ellipse_26" data-name="Ellipse 26" class="cls-3" cx="13.102" cy="13.102" r="13.102" transform="translate(1340.932 1622.288)"/>
      <circle id="Ellipse_27" data-name="Ellipse 27" class="cls-3" cx="13.102" cy="13.102" r="13.102" transform="translate(1388.576 1622.288)"/>
      <circle id="Ellipse_28" data-name="Ellipse 28" class="cls-3" cx="13.102" cy="13.102" r="13.102" transform="translate(1436.22 1622.288)"/>
      <circle id="Ellipse_29" data-name="Ellipse 29" class="cls-3" cx="13.102" cy="13.102" r="13.102" transform="translate(1483.864 1622.288)"/>
      <circle id="Ellipse_30" data-name="Ellipse 30" class="cls-3" cx="13.102" cy="13.102" r="13.102" transform="translate(1531.508 1622.288)"/>
      <circle id="Ellipse_31" data-name="Ellipse 31" class="cls-3" cx="13.102" cy="13.102" r="13.102" transform="translate(1579.152 1622.288)"/>
      <circle id="Ellipse_32" data-name="Ellipse 32" class="cls-3" cx="13.102" cy="13.102" r="13.102" transform="translate(1626.796 1622.288)"/>
      <circle id="Ellipse_33" data-name="Ellipse 33" class="cls-3" cx="13.102" cy="13.102" r="13.102" transform="translate(1198 1669.932)"/>
      <circle id="Ellipse_34" data-name="Ellipse 34" class="cls-3" cx="13.102" cy="13.102" r="13.102" transform="translate(1245.644 1669.932)"/>
      <circle id="Ellipse_35" data-name="Ellipse 35" class="cls-3" cx="13.102" cy="13.102" r="13.102" transform="translate(1293.288 1669.932)"/>
      <circle id="Ellipse_36" data-name="Ellipse 36" class="cls-3" cx="13.102" cy="13.102" r="13.102" transform="translate(1340.932 1669.932)"/>
      <circle id="Ellipse_37" data-name="Ellipse 37" class="cls-3" cx="13.102" cy="13.102" r="13.102" transform="translate(1388.576 1669.932)"/>
      <circle id="Ellipse_38" data-name="Ellipse 38" class="cls-3" cx="13.102" cy="13.102" r="13.102" transform="translate(1436.22 1669.932)"/>
      <circle id="Ellipse_39" data-name="Ellipse 39" class="cls-3" cx="13.102" cy="13.102" r="13.102" transform="translate(1483.864 1669.932)"/>
      <circle id="Ellipse_40" data-name="Ellipse 40" class="cls-3" cx="13.102" cy="13.102" r="13.102" transform="translate(1531.508 1669.932)"/>
      <circle id="Ellipse_41" data-name="Ellipse 41" class="cls-3" cx="13.102" cy="13.102" r="13.102" transform="translate(1579.152 1669.932)"/>
      <circle id="Ellipse_42" data-name="Ellipse 42" class="cls-3" cx="13.102" cy="13.102" r="13.102" transform="translate(1626.796 1669.932)"/>
      <circle id="Ellipse_43" data-name="Ellipse 43" class="cls-3" cx="13.102" cy="13.102" r="13.102" transform="translate(1198 1717.576)"/>
      <circle id="Ellipse_44" data-name="Ellipse 44" class="cls-3" cx="13.102" cy="13.102" r="13.102" transform="translate(1245.644 1717.576)"/>
      <circle id="Ellipse_45" data-name="Ellipse 45" class="cls-3" cx="13.102" cy="13.102" r="13.102" transform="translate(1293.288 1717.576)"/>
      <circle id="Ellipse_46" data-name="Ellipse 46" class="cls-3" cx="13.102" cy="13.102" r="13.102" transform="translate(1340.932 1717.576)"/>
      <circle id="Ellipse_47" data-name="Ellipse 47" class="cls-3" cx="13.102" cy="13.102" r="13.102" transform="translate(1388.576 1717.576)"/>
      <circle id="Ellipse_48" data-name="Ellipse 48" class="cls-3" cx="13.102" cy="13.102" r="13.102" transform="translate(1436.22 1717.576)"/>
      <circle id="Ellipse_49" data-name="Ellipse 49" class="cls-3" cx="13.102" cy="13.102" r="13.102" transform="translate(1483.864 1717.576)"/>
      <circle id="Ellipse_50" data-name="Ellipse 50" class="cls-3" cx="13.102" cy="13.102" r="13.102" transform="translate(1531.508 1717.576)"/>
      <circle id="Ellipse_51" data-name="Ellipse 51" class="cls-3" cx="13.102" cy="13.102" r="13.102" transform="translate(1579.152 1717.576)"/>
      <circle id="Ellipse_52" data-name="Ellipse 52" class="cls-3" cx="13.102" cy="13.102" r="13.102" transform="translate(1626.796 1717.576)"/>
      <circle id="Ellipse_53" data-name="Ellipse 53" class="cls-3" cx="13.102" cy="13.102" r="13.102" transform="translate(1198 1765.22)"/>
      <circle id="Ellipse_54" data-name="Ellipse 54" class="cls-3" cx="13.102" cy="13.102" r="13.102" transform="translate(1245.644 1765.22)"/>
      <circle id="Ellipse_55" data-name="Ellipse 55" class="cls-3" cx="13.102" cy="13.102" r="13.102" transform="translate(1293.288 1765.22)"/>
      <circle id="Ellipse_56" data-name="Ellipse 56" class="cls-3" cx="13.102" cy="13.102" r="13.102" transform="translate(1340.932 1765.22)"/>
      <circle id="Ellipse_57" data-name="Ellipse 57" class="cls-3" cx="13.102" cy="13.102" r="13.102" transform="translate(1388.576 1765.22)"/>
      <circle id="Ellipse_58" data-name="Ellipse 58" class="cls-3" cx="13.102" cy="13.102" r="13.102" transform="translate(1436.22 1765.22)"/>
      <circle id="Ellipse_59" data-name="Ellipse 59" class="cls-3" cx="13.102" cy="13.102" r="13.102" transform="translate(1483.864 1765.22)"/>
      <circle id="Ellipse_60" data-name="Ellipse 60" class="cls-3" cx="13.102" cy="13.102" r="13.102" transform="translate(1531.508 1765.22)"/>
      <circle id="Ellipse_61" data-name="Ellipse 61" class="cls-3" cx="13.102" cy="13.102" r="13.102" transform="translate(1579.152 1765.22)"/>
      <circle id="Ellipse_62" data-name="Ellipse 62" class="cls-3" cx="13.102" cy="13.102" r="13.102" transform="translate(1626.796 1765.22)"/>
      <circle id="Ellipse_63" data-name="Ellipse 63" class="cls-3" cx="13.102" cy="13.102" r="13.102" transform="translate(1198 1812.864)"/>
      <circle id="Ellipse_64" data-name="Ellipse 64" class="cls-3" cx="13.102" cy="13.102" r="13.102" transform="translate(1245.644 1812.864)"/>
      <circle id="Ellipse_65" data-name="Ellipse 65" class="cls-3" cx="13.102" cy="13.102" r="13.102" transform="translate(1293.288 1812.864)"/>
      <circle id="Ellipse_66" data-name="Ellipse 66" class="cls-3" cx="13.102" cy="13.102" r="13.102" transform="translate(1340.932 1812.864)"/>
      <circle id="Ellipse_67" data-name="Ellipse 67" class="cls-3" cx="13.102" cy="13.102" r="13.102" transform="translate(1388.576 1812.864)"/>
      <circle id="Ellipse_68" data-name="Ellipse 68" class="cls-3" cx="13.102" cy="13.102" r="13.102" transform="translate(1436.22 1812.864)"/>
      <circle id="Ellipse_69" data-name="Ellipse 69" class="cls-3" cx="13.102" cy="13.102" r="13.102" transform="translate(1483.864 1812.864)"/>
      <circle id="Ellipse_70" data-name="Ellipse 70" class="cls-3" cx="13.102" cy="13.102" r="13.102" transform="translate(1531.508 1812.864)"/>
      <circle id="Ellipse_71" data-name="Ellipse 71" class="cls-3" cx="13.102" cy="13.102" r="13.102" transform="translate(1579.152 1812.864)"/>
      <circle id="Ellipse_72" data-name="Ellipse 72" class="cls-3" cx="13.102" cy="13.102" r="13.102" transform="translate(1626.796 1812.864)"/>
      <circle id="Ellipse_73" data-name="Ellipse 73" class="cls-3" cx="13.102" cy="13.102" r="13.102" transform="translate(1198 1860.508)"/>
      <circle id="Ellipse_74" data-name="Ellipse 74" class="cls-3" cx="13.102" cy="13.102" r="13.102" transform="translate(1245.644 1860.508)"/>
      <circle id="Ellipse_75" data-name="Ellipse 75" class="cls-3" cx="13.102" cy="13.102" r="13.102" transform="translate(1293.288 1860.508)"/>
      <circle id="Ellipse_76" data-name="Ellipse 76" class="cls-3" cx="13.102" cy="13.102" r="13.102" transform="translate(1340.932 1860.508)"/>
      <circle id="Ellipse_77" data-name="Ellipse 77" class="cls-3" cx="13.102" cy="13.102" r="13.102" transform="translate(1388.576 1860.508)"/>
      <circle id="Ellipse_78" data-name="Ellipse 78" class="cls-3" cx="13.102" cy="13.102" r="13.102" transform="translate(1436.22 1860.508)"/>
      <circle id="Ellipse_79" data-name="Ellipse 79" class="cls-3" cx="13.102" cy="13.102" r="13.102" transform="translate(1483.864 1860.508)"/>
      <circle id="Ellipse_80" data-name="Ellipse 80" class="cls-3" cx="13.102" cy="13.102" r="13.102" transform="translate(1531.508 1860.508)"/>
      <circle id="Ellipse_81" data-name="Ellipse 81" class="cls-3" cx="13.102" cy="13.102" r="13.102" transform="translate(1579.152 1860.508)"/>
      <circle id="Ellipse_82" data-name="Ellipse 82" class="cls-3" cx="13.102" cy="13.102" r="13.102" transform="translate(1626.796 1860.508)"/>
      <circle id="Ellipse_83" data-name="Ellipse 83" class="cls-3" cx="13.102" cy="13.102" r="13.102" transform="translate(1198 1908.152)"/>
      <circle id="Ellipse_84" data-name="Ellipse 84" class="cls-3" cx="13.102" cy="13.102" r="13.102" transform="translate(1245.644 1908.152)"/>
      <circle id="Ellipse_85" data-name="Ellipse 85" class="cls-3" cx="13.102" cy="13.102" r="13.102" transform="translate(1293.288 1908.152)"/>
      <circle id="Ellipse_86" data-name="Ellipse 86" class="cls-3" cx="13.102" cy="13.102" r="13.102" transform="translate(1340.932 1908.152)"/>
      <circle id="Ellipse_87" data-name="Ellipse 87" class="cls-3" cx="13.102" cy="13.102" r="13.102" transform="translate(1388.576 1908.152)"/>
      <circle id="Ellipse_88" data-name="Ellipse 88" class="cls-3" cx="13.102" cy="13.102" r="13.102" transform="translate(1436.22 1908.152)"/>
      <circle id="Ellipse_89" data-name="Ellipse 89" class="cls-3" cx="13.102" cy="13.102" r="13.102" transform="translate(1483.864 1908.152)"/>
      <circle id="Ellipse_90" data-name="Ellipse 90" class="cls-3" cx="13.102" cy="13.102" r="13.102" transform="translate(1531.508 1908.152)"/>
      <circle id="Ellipse_91" data-name="Ellipse 91" class="cls-3" cx="13.102" cy="13.102" r="13.102" transform="translate(1579.152 1908.152)"/>
      <circle id="Ellipse_92" data-name="Ellipse 92" class="cls-3" cx="13.102" cy="13.102" r="13.102" transform="translate(1626.796 1908.152)"/>
    </g>
    <rect id="Rectangle_17" data-name="Rectangle 17" class="cls-4" width="455" height="407" transform="translate(806 309)"/>
  </g>
</svg>
