<svg xmlns="http://www.w3.org/2000/svg" viewBox="0 0 1920 407.001">
  <defs>
    <style>
      .cls-1 {
        fill: #ff2c32;
        opacity: 0.11;
      }

      .cls-2, .cls-3, .cls-5 {
        fill: #e08488;
      }

      .cls-2 {
        opacity: 0.157;
      }

      .cls-4 {
        fill: #f5a8ab;
      }

      .cls-5 {
        opacity: 0.128;
      }
    </style>
  </defs>
  <g id="Groupe_239" data-name="Groupe 239" transform="translate(0 -120)">
    <rect id="Rectangle_113" data-name="Rectangle 113" class="cls-1" width="1920" height="407" transform="translate(0 120)"/>
    <path id="Intersection_11" data-name="Intersection 11" class="cls-2" d="M-3849.129,668A489.9,489.9,0,0,1-3882,491a488.882,488.882,0,0,1,57.091-230H-3098V668Z" transform="translate(5018 -141)"/>
    <path id="Soustraction_20" data-name="Soustraction 20" class="cls-3" d="M-3433.251,136h-444.5a250.064,250.064,0,0,1,38.526-55.31,250.671,250.671,0,0,1,51.746-42.965A248.259,248.259,0,0,1-3725.3,9.9,249.845,249.845,0,0,1-3655.5,0a249.845,249.845,0,0,1,69.8,9.9,248.259,248.259,0,0,1,62.172,27.828,250.668,250.668,0,0,1,51.745,42.965A250.049,250.049,0,0,1-3433.251,136v0h0Z" transform="translate(4319 391)"/>
    <path id="Soustraction_22" data-name="Soustraction 22" class="cls-4" d="M-3857.5,294a127.438,127.438,0,0,1-25.494-2.57,125.864,125.864,0,0,1-23.745-7.371,126.509,126.509,0,0,1-21.488-11.663,127.382,127.382,0,0,1-18.722-15.447,127.407,127.407,0,0,1-15.447-18.722,126.516,126.516,0,0,1-11.663-21.488,125.864,125.864,0,0,1-7.371-23.745A127.439,127.439,0,0,1-3984,167.5a126.789,126.789,0,0,1,4.622-34,125.85,125.85,0,0,1,13.034-30.5h217.687a125.849,125.849,0,0,1,13.034,30.5,126.789,126.789,0,0,1,4.622,34,127.439,127.439,0,0,1-2.57,25.494,125.864,125.864,0,0,1-7.371,23.745,126.526,126.526,0,0,1-11.663,21.488,127.407,127.407,0,0,1-15.447,18.722,127.4,127.4,0,0,1-18.722,15.447,126.509,126.509,0,0,1-21.488,11.663,125.875,125.875,0,0,1-23.745,7.371A127.438,127.438,0,0,1-3857.5,294Z" transform="translate(4737 17)"/>
    <path id="Soustraction_25" data-name="Soustraction 25" class="cls-3" d="M-3726.871,322.057h-150.11l153.439-265.765a65.145,65.145,0,0,1,10.725-13.877,64.672,64.672,0,0,1,13.542-10.2,65.371,65.371,0,0,1,32.085-8.436,64.662,64.662,0,0,1,16.516,2.143A65.174,65.174,0,0,1-3634.75,32.5a64.6,64.6,0,0,1,19.357,17.074,64.991,64.991,0,0,1,6.566,10.711,65.473,65.473,0,0,1,4.363,11.684,65.453,65.453,0,0,1,2.064,12.3,65.007,65.007,0,0,1-.33,12.558,64.592,64.592,0,0,1-8.227,24.465l-115.912,200.765Z" transform="translate(5446 204.943)"/>
    <path id="Soustraction_24" data-name="Soustraction 24" class="cls-4" d="M-3620.619,183.057H-3770.73l73.188-126.765a65.148,65.148,0,0,1,10.725-13.877,64.672,64.672,0,0,1,13.542-10.2,65.37,65.37,0,0,1,32.085-8.436,64.663,64.663,0,0,1,16.516,2.143A65.175,65.175,0,0,1-3608.75,32.5a64.6,64.6,0,0,1,19.357,17.074,65.014,65.014,0,0,1,6.566,10.711,65.472,65.472,0,0,1,4.363,11.684,65.457,65.457,0,0,1,2.064,12.3,65.007,65.007,0,0,1-.33,12.558,64.592,64.592,0,0,1-8.227,24.465l-35.66,61.765Z" transform="translate(5237 343.943)"/>
    <path id="Soustraction_26" data-name="Soustraction 26" class="cls-5" d="M-3910.068,570.609a72.6,72.6,0,0,1-18.549-2.407,73.2,73.2,0,0,1-17.883-7.386,72.54,72.54,0,0,1-21.74-19.175,73.019,73.019,0,0,1-7.374-12.029,73.547,73.547,0,0,1-4.9-13.122,73.539,73.539,0,0,1-2.318-13.813,73,73,0,0,1,.371-14.1,72.544,72.544,0,0,1,9.239-27.476L-3843.837,237h168.586L-3846.78,534.1a73.16,73.16,0,0,1-12.045,15.584,72.62,72.62,0,0,1-15.208,11.453A73.421,73.421,0,0,1-3910.068,570.609Z" transform="translate(4095 -117)"/>
    <path id="Soustraction_21" data-name="Soustraction 21" class="cls-4" d="M-3447.229,216H-3941.77a248.735,248.735,0,0,1,10.139-44.294,248.79,248.79,0,0,1,17.623-40.9,250.569,250.569,0,0,1,24.333-36.737,251.657,251.657,0,0,1,30.267-31.8,251.024,251.024,0,0,1,35.426-26.08,249.21,249.21,0,0,1,39.81-19.588,248.366,248.366,0,0,1,43.419-12.321A251.659,251.659,0,0,1-3694.5,0a251.659,251.659,0,0,1,46.254,4.279A248.366,248.366,0,0,1-3604.827,16.6a249.19,249.19,0,0,1,39.81,19.588,251,251,0,0,1,35.426,26.08,251.685,251.685,0,0,1,30.267,31.8,250.569,250.569,0,0,1,24.333,36.737,248.777,248.777,0,0,1,17.623,40.9A248.733,248.733,0,0,1-3447.23,216Z" transform="translate(4048 311)"/>
    <path id="Soustraction_27" data-name="Soustraction 27" class="cls-4" d="M64.949,449.276h-.01a64.92,64.92,0,0,1-58.352-36.5,65.2,65.2,0,0,1-6.1-36.542,64.609,64.609,0,0,1,8.227-24.465L49,282H199.109L121.3,416.765a64.982,64.982,0,0,1-56.353,32.511Z" transform="translate(129.24 -162)"/>
  </g>
</svg>
