<svg xmlns="http://www.w3.org/2000/svg" xmlns:xlink="http://www.w3.org/1999/xlink" viewBox="0 0 350.543 338.715">
  <defs>
    <style>
      .cls-1, .cls-10, .cls-12, .cls-2 {
        fill: #fff;
      }

      .cls-2 {
        stroke: #b7b7b7;
      }

      .cls-12, .cls-2 {
        stroke-width: 4px;
      }

      .cls-11, .cls-3 {
        fill: #ffeee2;
      }

      .cls-4 {
        fill: #efd8c8;
      }

      .cls-22, .cls-5, .cls-8, .cls-9 {
        fill: #707070;
      }

      .cls-11, .cls-13, .cls-16, .cls-5, .cls-9 {
        stroke: #707070;
      }

      .cls-6 {
        fill: #fd999d;
      }

      .cls-19, .cls-7 {
        fill: #e08084;
      }

      .cls-11, .cls-13, .cls-16, .cls-9 {
        stroke-width: 3px;
      }

      .cls-12 {
        stroke: #c3c3c3;
      }

      .cls-13 {
        fill: #edfeff;
      }

      .cls-14 {
        fill: #b1c0ff;
      }

      .cls-15 {
        fill: #828ebf;
        opacity: 0.622;
      }

      .cls-16, .cls-21 {
        fill: none;
      }

      .cls-17 {
        fill: #93a0d7;
        opacity: 0.412;
      }

      .cls-18 {
        fill: #886c5a;
      }

      .cls-19 {
        opacity: 0.217;
      }

      .cls-20, .cls-22 {
        stroke: none;
      }

      .cls-23 {
        filter: url(#Union_40);
      }
    </style>
    <filter id="Union_40" x="0" y="0" width="350.543" height="338.715" filterUnits="userSpaceOnUse">
      <feOffset dx="2" dy="5" input="SourceAlpha"/>
      <feGaussianBlur stdDeviation="12.5" result="blur"/>
      <feFlood flood-opacity="0.161"/>
      <feComposite operator="in" in2="blur"/>
      <feComposite in="SourceGraphic"/>
    </filter>
  </defs>
  <g id="Groupe_231" data-name="Groupe 231" transform="translate(-830.5 -675)">
    <g class="cls-23" transform="matrix(1, 0, 0, 1, 830.5, 675)">
      <path id="Union_40-2" data-name="Union 40" class="cls-1" d="M-2599-2229.285l5.039-51.962.012,0c.126-1.4.284-2.812.472-4.184a85.237,85.237,0,0,1,2.41-11.606,75.424,75.424,0,0,1,3.813-10.5q.953-2.111,2.025-4.107c-.867-1.988-1.687-4.041-2.443-6.116-1-2.75-1.885-5.532-2.631-8.271-.725-2.665-1.324-5.309-1.78-7.86a70.893,70.893,0,0,1-.928-7.222,48.322,48.322,0,0,1-.079-6.357v0a62.418,62.418,0,0,1,.448-6.372v0c.258-2.89.651-5.9,1.17-8.934.532-3.122,1.2-6.312,1.992-9.479,1.031-4.132,2.248-8.17,3.62-12.005a102.162,102.162,0,0,1,4.358-10.415l0,0,0,0c.774-1.932,1.635-3.872,2.558-5.765a82.569,82.569,0,0,1,8.448-13.8,68.915,68.915,0,0,1,4.786-5.647,57.019,57.019,0,0,1,5-4.693l0,0h0q.626-.565,1.314-1.112a25.95,25.95,0,0,1-9.741-20.29,26,26,0,0,1,26-26h10.886a21,21,0,0,1,21-21h98.113a21,21,0,0,1,21,21,21,21,0,0,1-21,21h-1.481a26.13,26.13,0,0,1,.48,5,26,26,0,0,1-26,26h-26.448l-12.559,12.561V-2420h-16.832q.184.366.348.735v0h0a24.332,24.332,0,0,1,1.687,4.623,25.734,25.734,0,0,1,.756,5.089c.02.346.03.7.03,1.041v.212a25.617,25.617,0,0,1-1.066,7.356c-.066.222-.137.443-.209.662.176.507.346,1.021.508,1.535a4.028,4.028,0,0,1,2.787-1.256c3.129,0,5.7,4.393,5.974,10h0c.016.328.025.662.025,1,0,6.075-2.686,11-6,11h-.042a58.526,58.526,0,0,1-8.364,28.323q1.092,2.542,1.957,5.114a59.336,59.336,0,0,1,2.273,8.991h0q.189,1.058.325,2.136.414.316.824.643,1.362,1.084,2.683,2.273.679.612,1.347,1.252l.039.037.075.073.077.074.037.035a68.1,68.1,0,0,1,6.723,7.581,81.7,81.7,0,0,1,7.067,11.032,96.61,96.61,0,0,1,5.65,12.74,109.87,109.87,0,0,1,4.045,14.176,120.18,120.18,0,0,1,2.253,15.339l.008.1h.018l2.6,38.794Zm248.259-.13h-87.8v-67.911a25.051,25.051,0,0,1,.844-6.474,25.014,25.014,0,0,1,1.12-3.257,24.917,24.917,0,0,1,5.358-7.947,24.946,24.946,0,0,1,7.947-5.358,24.794,24.794,0,0,1,8.35-1.928c.457-.024.919-.037,1.381-.037h19.343v-8.1a39.024,39.024,0,0,1-28.452-35.526h-.052a7.391,7.391,0,0,1-7.392-7.391,7.391,7.391,0,0,1,7.392-7.39v-.679a31.709,31.709,0,0,1-6.336-19.382c0-13.487,7.806-24.788,18.291-27.75q.153-.765.37-1.515l0,0c.007-.027.015-.055.023-.082s.009-.027.011-.041.009-.031.014-.046.016-.052.023-.078a.022.022,0,0,0,0-.011,18.156,18.156,0,0,1,.963-2.464,17.93,17.93,0,0,1,3.52-4.972,17.946,17.946,0,0,1,5.722-3.858,17.883,17.883,0,0,1,7.006-1.414h40.852a14.013,14.013,0,0,0,9.017-3.29,14.031,14.031,0,0,0,4.756-8.186,38.5,38.5,0,0,1,10.917,13.369,39.383,39.383,0,0,1,3.025,8.418,40.281,40.281,0,0,1,1.065,9.221,39.693,39.693,0,0,1-2.9,15,38.529,38.529,0,0,1-7.918,12.25,37.748,37.748,0,0,1-3.966,3.592l-3.16,6.038v5.881a7.391,7.391,0,0,1,7.39,7.391,7.39,7.39,0,0,1-7.39,7.391h-.053a39.026,39.026,0,0,1-27.4,35.216v8.409h19.344a24.835,24.835,0,0,1,9.732,1.965,24.926,24.926,0,0,1,7.947,5.358,24.918,24.918,0,0,1,5.358,7.947,24.846,24.846,0,0,1,1.964,9.731v67.911h-21.109Z" transform="translate(2634.5 2525.5)"/>
    </g>
    <g id="Groupe_230" data-name="Groupe 230" transform="translate(0.367)">
      <path id="Union_20" data-name="Union 20" class="cls-2" d="M-2430.508-2436.5H-2494.5a26,26,0,0,1-26-26,26,26,0,0,1,26-26h103a26,26,0,0,1,26,26,26,26,0,0,1-26,26h-26.448l-12.56,12.56Z" transform="translate(3416 3217)"/>
      <g id="Groupe_8" data-name="Groupe 8" transform="translate(80 458.085)">
        <rect id="Rectangle_40" data-name="Rectangle 40" class="cls-3" width="25.339" height="33.786" transform="translate(990.437 397.916)"/>
        <ellipse id="Ellipse_3" data-name="Ellipse 3" class="cls-3" cx="7.391" cy="7.391" rx="7.391" ry="7.391" transform="translate(954.539 361.684)"/>
        <rect id="Rectangle_47" data-name="Rectangle 47" class="cls-3" width="35.898" height="25.339" transform="translate(985.158 420.089)"/>
        <path id="Tracé_13" data-name="Tracé 13" class="cls-4" d="M0,0H19V31.558H0L-5.279,14.221H0Z" transform="translate(990.604 405.921)"/>
        <path id="Tracé_3" data-name="Tracé 3" class="cls-5" d="M4784.929,366.083l14.433-27.573-18.178,2.089Z" transform="translate(-3741.985 -9.739)"/>
        <path id="Soustraction_3" data-name="Soustraction 3" class="cls-6" d="M114.028,92.912H0V25A24.98,24.98,0,0,1,25,0H41.177a15.733,15.733,0,0,0,4.639,11.2,15.837,15.837,0,0,0,22.4,0A15.734,15.734,0,0,0,72.851,0H89.028a24.98,24.98,0,0,1,25,25Z" transform="translate(946.092 420.088)"/>
        <path id="Tracé_9" data-name="Tracé 9" class="cls-7" d="M0,0H0L5.118,46.456H0Z" transform="translate(1033.893 466.544)"/>
        <path id="Tracé_10" data-name="Tracé 10" class="cls-7" d="M4.886,0h0L0,46.456H4.886Z" transform="translate(961.481 466.544)"/>
        <path id="Union_1" data-name="Union 1" class="cls-8" d="M0,53.624C0,40.137,7.806,28.837,18.291,25.874A17.989,17.989,0,0,1,35.949,11.391H76.8A14.011,14.011,0,0,0,85.818,8.1,14.025,14.025,0,0,0,90.573-.086a38.511,38.511,0,0,1,10.918,13.37,39.381,39.381,0,0,1,3.026,8.419,40.279,40.279,0,0,1,1.065,9.221,39.721,39.721,0,0,1-2.9,15,38.529,38.529,0,0,1-7.919,12.249,36.782,36.782,0,0,1-11.747,8.259,35.667,35.667,0,0,1-29.617-.389,36.653,36.653,0,0,1-6.553-3.991l-.322-.249C43.589,73.561,34.506,82.13,23.756,82.13,10.636,82.13,0,69.368,0,53.624Z" transform="translate(955.595 288)"/>
        <ellipse id="Ellipse_6" data-name="Ellipse 6" class="cls-3" cx="7.391" cy="7.391" rx="7.391" ry="7.391" transform="translate(1035.837 361.684)"/>
        <path id="Rectangle_39" data-name="Rectangle 39" class="cls-3" d="M28,0H51.3a30,30,0,0,1,30,30V48.632a39,39,0,0,1-39,39H39a39,39,0,0,1-39-39V28A28,28,0,0,1,28,0Z" transform="translate(961.93 325.786)"/>
        <g id="Ellipse_4" data-name="Ellipse 4" class="cls-9" transform="translate(979.879 357.461)">
          <ellipse class="cls-20" cx="5.279" cy="5.279" rx="5.279" ry="5.279"/>
          <ellipse class="cls-21" cx="5.279" cy="5.279" rx="3.779" ry="3.779"/>
        </g>
        <g id="Soustraction_1" data-name="Soustraction 1" class="cls-10" transform="matrix(1, 0.017, -0.017, 1, 993.698, 390.007)">
          <path class="cls-20" d="M 10.55900573730469 9.05860424041748 C 8.14378547668457 9.05860424041748 5.870115280151367 8.115103721618652 4.156825065612793 6.401884078979492 C 2.803580760955811 5.048702716827393 1.930569052696228 3.345996618270874 1.623407006263733 1.500003218650818 L 19.49247741699219 1.49999475479126 C 18.7756404876709 5.783508777618408 15.04249477386475 9.05860424041748 10.55900573730469 9.05860424041748 Z"/>
          <path class="cls-22" d="M 10.55900573730469 7.55860424041748 C 13.66107273101807 7.55860424041748 16.33267211914062 5.67963171005249 17.49576568603516 2.999995708465576 L 3.619292497634888 3.000002384185791 C 3.993551254272461 3.862087726593018 4.531641006469727 4.655408382415771 5.217465400695801 5.341204166412354 C 6.647435188293457 6.771123886108398 8.544435501098633 7.55860424041748 10.55899524688721 7.55860424041748 L 10.55900573730469 7.55860424041748 M 10.55900573730469 10.55860424041748 C 4.736825466156006 10.55861377716064 5.277099717204692e-06 5.822033882141113 5.277099717204692e-06 4.02755722461734e-06 L 21.11663436889648 -5.972442522761412e-06 C 21.11663436889648 5.822504043579102 16.37980461120605 10.55860424041748 10.55900573730469 10.55860424041748 Z"/>
        </g>
        <g id="Rectangle_42" data-name="Rectangle 42" class="cls-11" transform="translate(998.883 361.684)">
          <rect class="cls-20" width="8.446" height="21.116"/>
          <rect class="cls-21" x="1.5" y="1.5" width="5.446" height="18.116"/>
        </g>
        <path id="Tracé_2" data-name="Tracé 2" class="cls-3" d="M-5.012,0h15.85L7.8,35.4.1,29.823Z" transform="translate(1001.771 350.07)"/>
        <g id="Ellipse_7" data-name="Ellipse 7" class="cls-9" transform="translate(1014.72 357.461)">
          <ellipse class="cls-20" cx="5.279" cy="5.279" rx="5.279" ry="5.279"/>
          <ellipse class="cls-21" cx="5.279" cy="5.279" rx="3.779" ry="3.779"/>
        </g>
        <rect id="Rectangle_45" data-name="Rectangle 45" class="cls-8" width="77.074" height="45.4" rx="18" transform="translate(973.544 299.391)"/>
      </g>
      <path id="Union_21" data-name="Union 21" class="cls-12" d="M-2430.672-2446.5H-2499.5a21,21,0,0,1-21-21,21,21,0,0,1,21-21h98.113a21,21,0,0,1,21,21,21,21,0,0,1-21,21h-18.386v11.9Z" transform="translate(3452.887 3196)"/>
      <g id="Groupe_229" data-name="Groupe 229" transform="translate(-30)">
        <g id="Ellipse_117" data-name="Ellipse 117" class="cls-13" transform="translate(996 799)">
          <ellipse class="cls-20" cx="7.5" cy="12.5" rx="7.5" ry="12.5"/>
          <ellipse class="cls-21" cx="7.5" cy="12.5" rx="6" ry="11"/>
        </g>
        <ellipse id="Ellipse_97" data-name="Ellipse 97" class="cls-3" cx="44.556" cy="52.54" rx="44.556" ry="52.54" transform="translate(914.391 767.557)"/>
        <path id="Soustraction_10" data-name="Soustraction 10" class="cls-14" d="M137.46,113.8H0L5.038,61.839l.012,0c.125-1.4.284-2.812.472-4.185a85.233,85.233,0,0,1,2.41-11.606,75.463,75.463,0,0,1,3.813-10.5A63.575,63.575,0,0,1,16.795,26.4a51.143,51.143,0,0,1,6.117-7.544,40.084,40.084,0,0,1,7.017-5.693,32.129,32.129,0,0,1,7.75-3.6A28.183,28.183,0,0,1,51.27,8.81l.042.008.035-.025A47.61,47.61,0,0,1,63.671,2.285a41.823,41.823,0,0,1,6.6-1.7,40.435,40.435,0,0,1,12.345-.2,41.245,41.245,0,0,1,5.364,1.109,44.852,44.852,0,0,1,10.2,4.278,53.923,53.923,0,0,1,9.343,6.8,66.763,66.763,0,0,1,8.3,9.052,81.671,81.671,0,0,1,7.067,11.032,96.562,96.562,0,0,1,5.649,12.74,109.626,109.626,0,0,1,4.044,14.176A119.813,119.813,0,0,1,134.836,74.9l.008.1h.018l2.6,38.794Z" transform="translate(895.633 857.415)"/>
        <path id="Tracé_130" data-name="Tracé 130" class="cls-15" d="M0,0H0L5.727,40.932H0Z" transform="translate(1004.521 930.153)"/>
        <line id="Ligne_3" data-name="Ligne 3" class="cls-16" x1="18" transform="translate(991.5 810.5)"/>
        <path id="Soustraction_15" data-name="Soustraction 15" class="cls-3" d="M-2529.689-2496.644h-4.158a8.276,8.276,0,0,0-1.434-4.245,8.92,8.92,0,0,0-3.74-3.11h.019a9.665,9.665,0,0,1,6.695,2.632,8.786,8.786,0,0,1,2.619,4.723Z" transform="translate(2790.954 3881.735) rotate(15)"/>
        <path id="Soustraction_13" data-name="Soustraction 13" class="cls-4" d="M-2532.125-2497.527h-3.073a8.237,8.237,0,0,0-1.059-3.736,7.017,7.017,0,0,0-2.764-2.737h.014a6.572,6.572,0,0,1,4.948,2.316,8.225,8.225,0,0,1,1.935,4.156Z" transform="matrix(0.998, -0.07, 0.07, 0.998, 3690.992, 3129.293)"/>
        <path id="Intersection_9" data-name="Intersection 9" class="cls-17" d="M-2550.772-2450.683c.466-2.475,1.037-4.908,1.706-7.271a75.35,75.35,0,0,1,3.813-10.5,63.487,63.487,0,0,1,5.048-9.147,53.548,53.548,0,0,1,3.519-4.694,28.156,28.156,0,0,1,4.682-.393,28.215,28.215,0,0,1,5.274.5l.041.008.035-.025a47.613,47.613,0,0,1,12.325-6.509,41.829,41.829,0,0,1,6.6-1.7,40.491,40.491,0,0,1,6.836-.582,40.527,40.527,0,0,1,5.509.377,41.147,41.147,0,0,1,5.365,1.109,44.876,44.876,0,0,1,10.2,4.279,53.95,53.95,0,0,1,9.343,6.8,66.482,66.482,0,0,1,7.925,8.568c-9.263,21.017-28.434,35.453-50.582,35.453C-2527.591-2434.415-2540.779-2440.566-2550.772-2450.683Z" transform="translate(3473.633 3348.415)"/>
        <path id="Soustraction_11" data-name="Soustraction 11" class="cls-18" d="M49.287,156.327a39.511,39.511,0,0,1-24.759-8.956l0,0,0,0a29.767,29.767,0,0,1-5.012-4.635h0a52.3,52.3,0,0,1-6.347-8.339,57.7,57.7,0,0,1-4.8-9.806v-.006c-1.025-2.284-1.99-4.665-2.868-7.076-1-2.75-1.886-5.533-2.631-8.271-.725-2.665-1.324-5.309-1.78-7.859A71.1,71.1,0,0,1,.149,94.15,48.434,48.434,0,0,1,.07,87.793v0a62.291,62.291,0,0,1,.448-6.372v0c.257-2.89.651-5.9,1.169-8.934.533-3.122,1.2-6.311,1.993-9.48,1.03-4.131,2.248-8.17,3.619-12.005a102.2,102.2,0,0,1,4.358-10.415l0,0,0,0c.774-1.932,1.634-3.872,2.558-5.765a82.507,82.507,0,0,1,8.449-13.8,69.219,69.219,0,0,1,4.786-5.647,56.845,56.845,0,0,1,5-4.694l0,0,0,0a31.606,31.606,0,0,1,4.613-3.412,42.652,42.652,0,0,1,5.689-2.907,52.333,52.333,0,0,1,6.589-2.269A59.547,59.547,0,0,1,64.8,0,48.742,48.742,0,0,1,75.254,1.08h0A41.6,41.6,0,0,1,84.24,3.957a32.873,32.873,0,0,1,7.233,4.434h0a20.4,20.4,0,0,1,2.963,2.848h0A18.8,18.8,0,0,1,97.534,16v0a24.34,24.34,0,0,1,1.685,4.624,25.639,25.639,0,0,1,.756,5.087c.02.346.03.7.03,1.041,0,.023,0,.047,0,.07v.025h0v.033c0,.028,0,.056,0,.083a25.585,25.585,0,0,1-1.066,7.355,23.6,23.6,0,0,1-2.957,6.326,20.89,20.89,0,0,1-4.487,4.88c-.129.1-.262.2-.393.3-.029-.073-.061-.15-.094-.227a8.485,8.485,0,0,0-1.872-2.71,8.724,8.724,0,0,0-2.777-1.827,8.968,8.968,0,0,0-6.8,0,8.721,8.721,0,0,0-2.777,1.827,8.489,8.489,0,0,0-1.872,2.71,8.345,8.345,0,0,0,.183,7.028h0a11.993,11.993,0,0,0,2.559,3.545A12.7,12.7,0,0,0,79.3,57.523a11.408,11.408,0,0,0,1.663.946c.1.341.2.689.3,1.033a69.547,69.547,0,0,0,5.208,12.648c.907,1.713,1.887,3.4,2.915,5.018l.015.2.027-.011c.795,1.331,1.557,2.712,2.267,4.1a68.253,68.253,0,0,1,3.89,9.234,59.321,59.321,0,0,1,2.274,8.991h0a42.545,42.545,0,0,1,.6,5.248,37.82,37.82,0,0,1-.3,7.844v0a41.432,41.432,0,0,1-3.358,11.771v0a30.3,30.3,0,0,1-2.4,4.588,48.407,48.407,0,0,1-3.576,4.923,65.3,65.3,0,0,1-4.628,5.047c-1.731,1.706-3.6,3.375-5.56,4.961a76.791,76.791,0,0,1-6.33,4.618h0l0,0a41.241,41.241,0,0,1-10.509,5.5h0a33.09,33.09,0,0,1-4.661,1.439,18.755,18.755,0,0,1-4.027.491H53.07C51.819,156.263,50.546,156.327,49.287,156.327Z" transform="translate(901.473 765.235)"/>
      </g>
      <path id="Intersection_10" data-name="Intersection 10" class="cls-19" d="M-2569.062-2455.3a24.877,24.877,0,0,1,1.119-3.257,24.916,24.916,0,0,1,5.358-7.947,24.931,24.931,0,0,1,7.947-5.358,24.851,24.851,0,0,1,9.731-1.965h16.177a15.733,15.733,0,0,0,4.639,11.2,15.73,15.73,0,0,0,11.2,4.638,15.733,15.733,0,0,0,11.2-4.638,15.73,15.73,0,0,0,4.639-11.2H-2496c-.127,16.49-18.435,29.827-41,29.827C-2549.979-2444-2561.55-2448.413-2569.062-2455.3Z" transform="translate(3596 3352)"/>
    </g>
  </g>
</svg>
