<svg xmlns="http://www.w3.org/2000/svg" xmlns:xlink="http://www.w3.org/1999/xlink" viewBox="0 0 352.093 280.98">
  <defs>
    <style>
      .cls-1 {
        fill: #fff;
      }

      .cls-2 {
        fill: url(#linear-gradient);
      }

      .cls-3 {
        fill: #c7c7c7;
      }

      .cls-4 {
        fill: #707070;
      }

      .cls-5 {
        fill: #e3e3e3;
      }

      .cls-6 {
        fill: #fd999d;
      }

      .cls-13, .cls-18, .cls-7, .cls-8 {
        fill: none;
      }

      .cls-13, .cls-7, .cls-8, .cls-9 {
        stroke: #707070;
      }

      .cls-7, .cls-8 {
        stroke-width: 2px;
      }

      .cls-8 {
        stroke-linecap: round;
      }

      .cls-9 {
        fill: #edfeff;
      }

      .cls-13, .cls-9 {
        stroke-width: 3px;
      }

      .cls-10 {
        fill: #ffeee2;
      }

      .cls-11 {
        fill: #b1c0ff;
      }

      .cls-12 {
        fill: #828ebf;
        opacity: 0.622;
      }

      .cls-14 {
        fill: #efd8c8;
      }

      .cls-15 {
        fill: #93a0d7;
        opacity: 0.412;
      }

      .cls-16 {
        fill: #886c5a;
      }

      .cls-17 {
        stroke: none;
      }

      .cls-19 {
        filter: url(#Ellipse_131);
      }

      .cls-20 {
        filter: url(#Union_42);
      }
    </style>
    <filter id="Union_42" x="0" y="0" width="352.093" height="280.98" filterUnits="userSpaceOnUse">
      <feOffset dx="2" dy="5" input="SourceAlpha"/>
      <feGaussianBlur stdDeviation="12.5" result="blur"/>
      <feFlood flood-opacity="0.102"/>
      <feComposite operator="in" in2="blur"/>
      <feComposite in="SourceGraphic"/>
    </filter>
    <linearGradient id="linear-gradient" x1="1.282" y1="0.451" x2="-0.129" y2="0.446" gradientUnits="objectBoundingBox">
      <stop offset="0" stop-color="#b2b2b2"/>
      <stop offset="1" stop-color="#595959"/>
    </linearGradient>
    <filter id="Ellipse_131" x="210.267" y="195.076" width="26.82" height="26.82" filterUnits="userSpaceOnUse">
      <feOffset dy="3" input="SourceAlpha"/>
      <feGaussianBlur stdDeviation="3" result="blur-2"/>
      <feFlood flood-opacity="0.031"/>
      <feComposite operator="in" in2="blur-2"/>
      <feComposite in="SourceGraphic"/>
    </filter>
  </defs>
  <g id="Groupe_236" data-name="Groupe 236" transform="translate(-1490.5 -663.735)">
    <g class="cls-20" transform="matrix(1, 0, 0, 1, 1490.5, 663.73)">
      <path id="Union_42-2" data-name="Union 42" class="cls-1" d="M-2535-2273.019l5.039-51.962.012,0c.126-1.4.284-2.812.472-4.184a85.273,85.273,0,0,1,2.41-11.606,75.486,75.486,0,0,1,3.813-10.5q.955-2.111,2.026-4.107c-.867-1.988-1.688-4.041-2.444-6.116-1-2.75-1.885-5.532-2.631-8.271-.725-2.665-1.324-5.309-1.78-7.86a70.95,70.95,0,0,1-.928-7.222,48.325,48.325,0,0,1-.079-6.357v0a62.418,62.418,0,0,1,.448-6.372v0c.257-2.89.651-5.9,1.17-8.934.532-3.122,1.2-6.312,1.993-9.48,1.031-4.132,2.248-8.17,3.62-12.005a102.217,102.217,0,0,1,4.358-10.415l0,0,0,0c.774-1.932,1.634-3.872,2.558-5.765a82.513,82.513,0,0,1,8.448-13.8,68.864,68.864,0,0,1,4.786-5.647,57.088,57.088,0,0,1,5-4.693l0,0h0a31.4,31.4,0,0,1,4.612-3.412,42.379,42.379,0,0,1,5.689-2.908,51.988,51.988,0,0,1,6.589-2.269,58.754,58.754,0,0,1,7.312-1.5,58.667,58.667,0,0,1,8.145-.579,48.834,48.834,0,0,1,10.453,1.079l0,0a41.614,41.614,0,0,1,8.984,2.875,32.873,32.873,0,0,1,7.234,4.434h0a20.326,20.326,0,0,1,2.962,2.849h0a18.806,18.806,0,0,1,3.1,4.759v0h0a24.379,24.379,0,0,1,1.686,4.623,25.752,25.752,0,0,1,.756,5.089c.02.346.03.7.03,1.041v.212a25.617,25.617,0,0,1-1.066,7.356c-.067.221-.137.443-.209.662.176.507.345,1.021.509,1.535a4.023,4.023,0,0,1,2.786-1.256c3.129,0,5.7,4.393,5.975,10h0c.015.329.024.663.024,1,0,6.075-2.686,11-6,11h-.042a58.526,58.526,0,0,1-8.364,28.323q1.092,2.542,1.957,5.114a59.336,59.336,0,0,1,2.273,8.991h0q.189,1.058.325,2.136.415.316.824.644,1.092.869,2.158,1.806v-34.073a3,3,0,0,1,3-3h164.093a3,3,0,0,1,3,3v111.506a3,3,0,0,1-3,3h-59.927l4.185,18.318a1.5,1.5,0,0,1,.649,1.236,1.5,1.5,0,0,1-1.5,1.5h-58a1.5,1.5,0,0,1-1.5-1.5,1.5,1.5,0,0,1,1.5-1.5h5.72l4.208-18.053h-33.392l1.423,21.269Z" transform="translate(2570.5 2511.5)"/>
    </g>
    <g id="Groupe_235" data-name="Groupe 235" transform="translate(-10)">
      <g id="Groupe_232" data-name="Groupe 232" transform="translate(9)">
        <path id="Tracé_149" data-name="Tracé 149" class="cls-2" d="M0,7.426,32.507,0V53.506L0,45.931Z" transform="translate(1745.507 867.441) rotate(90)"/>
        <rect id="Rectangle_101" data-name="Rectangle 101" class="cls-3" width="61" height="3" rx="1.5" transform="translate(1685 899)"/>
      </g>
      <g id="Groupe_233" data-name="Groupe 233" transform="translate(-0.367)">
        <rect id="Rectangle_100" data-name="Rectangle 100" class="cls-3" width="117.507" height="17.092" rx="3" transform="translate(1813.459 763.441) rotate(90)"/>
        <rect id="Rectangle_37" data-name="Rectangle 37" class="cls-4" width="117.507" height="165.092" rx="3" transform="translate(1808.459 763.441) rotate(90)"/>
        <rect id="Rectangle_87" data-name="Rectangle 87" class="cls-1" width="102.756" height="151.476" rx="3" transform="translate(1801.651 770.249) rotate(90)"/>
        <path id="Rectangle_99" data-name="Rectangle 99" class="cls-5" d="M0,0H20.507a3,3,0,0,1,3,3V162.092a3,3,0,0,1-3,3H0a0,0,0,0,1,0,0V0A0,0,0,0,1,0,0Z" transform="translate(1808.459 857.441) rotate(90)"/>
      </g>
      <g class="cls-19" transform="matrix(1, 0, 0, 1, 1500.5, 663.73)">
        <ellipse id="Ellipse_131-2" data-name="Ellipse 131" class="cls-1" cx="4.41" cy="4.41" rx="4.41" ry="4.41" transform="translate(219.27 201.08)"/>
      </g>
      <rect id="Rectangle_102" data-name="Rectangle 102" class="cls-6" width="11" height="15" rx="2" transform="translate(1688 829)"/>
      <rect id="Rectangle_107" data-name="Rectangle 107" class="cls-6" width="11" height="12" rx="2" transform="translate(1668 832)"/>
      <rect id="Rectangle_103" data-name="Rectangle 103" class="cls-6" width="11" height="19" rx="2" transform="translate(1708 825)"/>
      <rect id="Rectangle_104" data-name="Rectangle 104" class="cls-6" width="11" height="24" rx="2" transform="translate(1728 820)"/>
      <rect id="Rectangle_105" data-name="Rectangle 105" class="cls-6" width="11" height="31" rx="2" transform="translate(1748 813)"/>
      <rect id="Rectangle_106" data-name="Rectangle 106" class="cls-6" width="11" height="41" rx="2" transform="translate(1768 803)"/>
      <path id="Tracé_150" data-name="Tracé 150" class="cls-7" d="M4203,3297.673s57.132,5.134,96.3-31.6" transform="translate(-2535 -2477)"/>
      <line id="Ligne_4" data-name="Ligne 4" class="cls-8" y1="9" x2="4" transform="translate(1761.5 788.5)"/>
      <path id="Tracé_151" data-name="Tracé 151" class="cls-8" d="M1.438,1.5,11,0" transform="translate(1754.5 788.5)"/>
    </g>
    <g id="Groupe_230" data-name="Groupe 230" transform="translate(660.367 -69)">
      <g id="Groupe_229" data-name="Groupe 229" transform="translate(-30)">
        <g id="Ellipse_117" data-name="Ellipse 117" class="cls-9" transform="translate(996 799)">
          <ellipse class="cls-17" cx="7.5" cy="12.5" rx="7.5" ry="12.5"/>
          <ellipse class="cls-18" cx="7.5" cy="12.5" rx="6" ry="11"/>
        </g>
        <ellipse id="Ellipse_97" data-name="Ellipse 97" class="cls-10" cx="44.556" cy="52.54" rx="44.556" ry="52.54" transform="translate(914.391 767.557)"/>
        <path id="Soustraction_10" data-name="Soustraction 10" class="cls-11" d="M137.46,113.8H0L5.038,61.839l.012,0c.125-1.4.284-2.812.472-4.185a85.233,85.233,0,0,1,2.41-11.606,75.463,75.463,0,0,1,3.813-10.5A63.575,63.575,0,0,1,16.795,26.4a51.143,51.143,0,0,1,6.117-7.544,40.084,40.084,0,0,1,7.017-5.693,32.129,32.129,0,0,1,7.75-3.6A28.183,28.183,0,0,1,51.27,8.81l.042.008.035-.025A47.61,47.61,0,0,1,63.671,2.285a41.823,41.823,0,0,1,6.6-1.7,40.435,40.435,0,0,1,12.345-.2,41.245,41.245,0,0,1,5.364,1.109,44.852,44.852,0,0,1,10.2,4.278,53.923,53.923,0,0,1,9.343,6.8,66.763,66.763,0,0,1,8.3,9.052,81.671,81.671,0,0,1,7.067,11.032,96.562,96.562,0,0,1,5.649,12.74,109.626,109.626,0,0,1,4.044,14.176A119.813,119.813,0,0,1,134.836,74.9l.008.1h.018l2.6,38.794Z" transform="translate(895.633 857.415)"/>
        <path id="Tracé_130" data-name="Tracé 130" class="cls-12" d="M0,0H0L5.727,40.932H0Z" transform="translate(1004.521 930.153)"/>
        <line id="Ligne_3" data-name="Ligne 3" class="cls-13" x1="18" transform="translate(991.5 810.5)"/>
        <path id="Soustraction_15" data-name="Soustraction 15" class="cls-10" d="M-2529.689-2496.644h-4.158a8.276,8.276,0,0,0-1.434-4.245,8.92,8.92,0,0,0-3.74-3.11h.019a9.665,9.665,0,0,1,6.695,2.632,8.786,8.786,0,0,1,2.619,4.723Z" transform="translate(2790.954 3881.735) rotate(15)"/>
        <path id="Soustraction_13" data-name="Soustraction 13" class="cls-14" d="M-2532.125-2497.527h-3.073a8.237,8.237,0,0,0-1.059-3.736,7.017,7.017,0,0,0-2.764-2.737h.014a6.572,6.572,0,0,1,4.948,2.316,8.225,8.225,0,0,1,1.935,4.156Z" transform="matrix(0.998, -0.07, 0.07, 0.998, 3690.992, 3129.293)"/>
        <path id="Intersection_9" data-name="Intersection 9" class="cls-15" d="M-2550.772-2450.683c.466-2.475,1.037-4.908,1.706-7.271a75.35,75.35,0,0,1,3.813-10.5,63.487,63.487,0,0,1,5.048-9.147,53.548,53.548,0,0,1,3.519-4.694,28.156,28.156,0,0,1,4.682-.393,28.215,28.215,0,0,1,5.274.5l.041.008.035-.025a47.613,47.613,0,0,1,12.325-6.509,41.829,41.829,0,0,1,6.6-1.7,40.491,40.491,0,0,1,6.836-.582,40.527,40.527,0,0,1,5.509.377,41.147,41.147,0,0,1,5.365,1.109,44.876,44.876,0,0,1,10.2,4.279,53.95,53.95,0,0,1,9.343,6.8,66.482,66.482,0,0,1,7.925,8.568c-9.263,21.017-28.434,35.453-50.582,35.453C-2527.591-2434.415-2540.779-2440.566-2550.772-2450.683Z" transform="translate(3473.633 3348.415)"/>
        <path id="Soustraction_11" data-name="Soustraction 11" class="cls-16" d="M49.287,156.327a39.511,39.511,0,0,1-24.759-8.956l0,0,0,0a29.767,29.767,0,0,1-5.012-4.635h0a52.3,52.3,0,0,1-6.347-8.339,57.7,57.7,0,0,1-4.8-9.806v-.006c-1.025-2.284-1.99-4.665-2.868-7.076-1-2.75-1.886-5.533-2.631-8.271-.725-2.665-1.324-5.309-1.78-7.859A71.1,71.1,0,0,1,.149,94.15,48.434,48.434,0,0,1,.07,87.793v0a62.291,62.291,0,0,1,.448-6.372v0c.257-2.89.651-5.9,1.169-8.934.533-3.122,1.2-6.311,1.993-9.48,1.03-4.131,2.248-8.17,3.619-12.005a102.2,102.2,0,0,1,4.358-10.415l0,0,0,0c.774-1.932,1.634-3.872,2.558-5.765a82.507,82.507,0,0,1,8.449-13.8,69.219,69.219,0,0,1,4.786-5.647,56.845,56.845,0,0,1,5-4.694l0,0,0,0a31.606,31.606,0,0,1,4.613-3.412,42.652,42.652,0,0,1,5.689-2.907,52.333,52.333,0,0,1,6.589-2.269A59.547,59.547,0,0,1,64.8,0,48.742,48.742,0,0,1,75.254,1.08h0A41.6,41.6,0,0,1,84.24,3.957a32.873,32.873,0,0,1,7.233,4.434h0a20.4,20.4,0,0,1,2.963,2.848h0A18.8,18.8,0,0,1,97.534,16v0a24.34,24.34,0,0,1,1.685,4.624,25.639,25.639,0,0,1,.756,5.087c.02.346.03.7.03,1.041,0,.023,0,.047,0,.07v.025h0v.033c0,.028,0,.056,0,.083a25.585,25.585,0,0,1-1.066,7.355,23.6,23.6,0,0,1-2.957,6.326,20.89,20.89,0,0,1-4.487,4.88c-.129.1-.262.2-.393.3-.029-.073-.061-.15-.094-.227a8.485,8.485,0,0,0-1.872-2.71,8.724,8.724,0,0,0-2.777-1.827,8.968,8.968,0,0,0-6.8,0,8.721,8.721,0,0,0-2.777,1.827,8.489,8.489,0,0,0-1.872,2.71,8.345,8.345,0,0,0,.183,7.028h0a11.993,11.993,0,0,0,2.559,3.545A12.7,12.7,0,0,0,79.3,57.523a11.408,11.408,0,0,0,1.663.946c.1.341.2.689.3,1.033a69.547,69.547,0,0,0,5.208,12.648c.907,1.713,1.887,3.4,2.915,5.018l.015.2.027-.011c.795,1.331,1.557,2.712,2.267,4.1a68.253,68.253,0,0,1,3.89,9.234,59.321,59.321,0,0,1,2.274,8.991h0a42.545,42.545,0,0,1,.6,5.248,37.82,37.82,0,0,1-.3,7.844v0a41.432,41.432,0,0,1-3.358,11.771v0a30.3,30.3,0,0,1-2.4,4.588,48.407,48.407,0,0,1-3.576,4.923,65.3,65.3,0,0,1-4.628,5.047c-1.731,1.706-3.6,3.375-5.56,4.961a76.791,76.791,0,0,1-6.33,4.618h0l0,0a41.241,41.241,0,0,1-10.509,5.5h0a33.09,33.09,0,0,1-4.661,1.439,18.755,18.755,0,0,1-4.027.491H53.07C51.819,156.263,50.546,156.327,49.287,156.327Z" transform="translate(901.473 765.235)"/>
      </g>
    </g>
  </g>
</svg>
