<svg xmlns="http://www.w3.org/2000/svg" viewBox="0 0 172.634 21.6">
  <defs>
    <style>
      .cls-1 {
        fill: #f0454c;
      }

      .cls-2 {
        fill: #222;
      }
    </style>
  </defs>
  <g id="Groupe_222" data-name="Groupe 222" transform="translate(-168.025 -100.589)">
    <path id="Tracé_119" data-name="Tracé 119" class="cls-1" d="M6.642-15.066v2.808q1.62-2.97,4.32-2.97v4.7H9.828a3.354,3.354,0,0,0-2.39.756,3.563,3.563,0,0,0-.8,2.646V0H2.025V-15.066ZM24.057-4.779a3.666,3.666,0,0,0,1-2.754,3.62,3.62,0,0,0-1-2.74,3.22,3.22,0,0,0-2.295-.959,3.2,3.2,0,0,0-2.3.972,3.666,3.666,0,0,0-1,2.754,3.62,3.62,0,0,0,1,2.741,3.22,3.22,0,0,0,2.3.958A3.2,3.2,0,0,0,24.057-4.779ZM15.768-1.971a7.83,7.83,0,0,1-2-5.535,7.879,7.879,0,0,1,2-5.549,6.371,6.371,0,0,1,4.873-2.174A5.113,5.113,0,0,1,25.056-13.1v-1.971h4.617V0H25.056V-2.187A5.22,5.22,0,0,1,20.574.189,6.316,6.316,0,0,1,15.768-1.971ZM44.307-4.779a3.666,3.666,0,0,0,1-2.754,3.62,3.62,0,0,0-1-2.74,3.22,3.22,0,0,0-2.295-.959,3.2,3.2,0,0,0-2.295.972,3.666,3.666,0,0,0-1,2.754,3.62,3.62,0,0,0,1,2.741,3.22,3.22,0,0,0,2.295.958A3.2,3.2,0,0,0,44.307-4.779ZM36.018-1.971a7.83,7.83,0,0,1-2-5.535,7.879,7.879,0,0,1,2-5.549,6.371,6.371,0,0,1,4.874-2.174A5.113,5.113,0,0,1,45.306-13.1V-19.98h4.617V0H45.306V-2.187A5.22,5.22,0,0,1,40.824.189,6.316,6.316,0,0,1,36.018-1.971Zm23.571-14.8a2.607,2.607,0,0,1-1.917.783,2.607,2.607,0,0,1-1.917-.783,2.623,2.623,0,0,1-.783-1.931,2.623,2.623,0,0,1,.783-1.931,2.607,2.607,0,0,1,1.917-.783,2.607,2.607,0,0,1,1.917.783,2.623,2.623,0,0,1,.783,1.931A2.623,2.623,0,0,1,59.589-16.767ZM55.377,0V-15.066h4.617V0Zm20.3-15.066H80.3V0H75.681V-2.214A4.93,4.93,0,0,1,71.118.162a5.467,5.467,0,0,1-4.2-1.728,6.628,6.628,0,0,1-1.606-4.7v-8.8H69.9v8.181a3.113,3.113,0,0,0,.77,2.254,2.809,2.809,0,0,0,2.119.8,2.809,2.809,0,0,0,2.119-.8,3.113,3.113,0,0,0,.77-2.254Zm9.045,4.536a4.12,4.12,0,0,1,1.7-3.348,7.205,7.205,0,0,1,4.6-1.35A7.668,7.668,0,0,1,95.715-13.9a4.549,4.549,0,0,1,1.89,3.618H92.88a1.325,1.325,0,0,0-.54-1.066,2.665,2.665,0,0,0-1.377-.283q-1.809,0-1.809,1.107,0,1,2.214,1.377a18,18,0,0,1,4.077,1.161,3.556,3.556,0,0,1,1.579,1.255,3.565,3.565,0,0,1,.634,2.147A4.1,4.1,0,0,1,95.85-1.148,7.473,7.473,0,0,1,91.287.189,7.948,7.948,0,0,1,86.7-1.067a4.6,4.6,0,0,1-2-3.712h4.725Q89.613-3.4,91.368-3.4A2.235,2.235,0,0,0,92.7-3.78a1.15,1.15,0,0,0,.526-.972q0-.594-.877-.945a11.933,11.933,0,0,0-2.12-.594q-1.242-.243-2.5-.607A4.767,4.767,0,0,1,85.6-8.168,3.25,3.25,0,0,1,84.726-10.53Z" transform="translate(243 122)"/>
    <path id="Tracé_120" data-name="Tracé 120" class="cls-2" d="M6.642-19.98v7.128A4.93,4.93,0,0,1,11.2-15.228,5.467,5.467,0,0,1,15.4-13.5,6.628,6.628,0,0,1,17.01-8.8V0H12.42V-8.181a3.113,3.113,0,0,0-.77-2.255,2.809,2.809,0,0,0-2.12-.8,2.809,2.809,0,0,0-2.119.8,3.113,3.113,0,0,0-.77,2.255V0H2.025V-19.98ZM28.728.189a7.286,7.286,0,0,1-5.4-2.12A7.636,7.636,0,0,1,21.222-7.56a7.525,7.525,0,0,1,2.093-5.589,7.351,7.351,0,0,1,5.413-2.079,7.734,7.734,0,0,1,5.508,2.052,7.432,7.432,0,0,1,2.187,5.7,9.242,9.242,0,0,1-.108,1.458H25.947a2.5,2.5,0,0,0,.891,1.634,2.493,2.493,0,0,0,1.633.634,3.681,3.681,0,0,0,1.31-.176,2.336,2.336,0,0,0,.634-.351,4.67,4.67,0,0,0,.527-.581h4.995A6.619,6.619,0,0,1,33.345-1.2,7.727,7.727,0,0,1,28.728.189Zm2.889-9.1a2.454,2.454,0,0,0-.918-1.714,2.937,2.937,0,0,0-1.917-.661,2.729,2.729,0,0,0-1.863.661,2.88,2.88,0,0,0-.945,1.714ZM40.8,0V-19.98h4.617V0ZM50.868,0V-19.98h4.617V0ZM69.984-4.725A3.938,3.938,0,0,0,70.9-7.533a3.819,3.819,0,0,0-.945-2.794,3.041,3.041,0,0,0-2.241-.959,3,3,0,0,0-2.228.959,3.853,3.853,0,0,0-.932,2.794,3.834,3.834,0,0,0,.959,2.808,3.064,3.064,0,0,0,2.255.972A2.936,2.936,0,0,0,69.984-4.725ZM62.127-1.944A7.35,7.35,0,0,1,59.859-7.56a7.222,7.222,0,0,1,2.268-5.576,7.97,7.97,0,0,1,5.616-2.093,7.922,7.922,0,0,1,5.6,2.093A7.243,7.243,0,0,1,75.6-7.56a7.4,7.4,0,0,1-2.241,5.616A7.789,7.789,0,0,1,67.77.189,7.979,7.979,0,0,1,62.127-1.944Z" transform="translate(166 122)"/>
  </g>
</svg>
